<svg width="148" height="34" viewBox="0 0 148 34" fill="none" xmlns="http://www.w3.org/2000/svg">
<path d="M50.032 21.352V19.024H59.296V21.352H50.032ZM46.432 25L53.224 9.448H56.152L62.992 25H60.04L54.088 10.96H55.288L49.36 25H46.432ZM71.9978 25.288C70.6698 25.288 69.4698 25.112 68.3978 24.76C67.3258 24.408 66.4058 23.896 65.6378 23.224C64.8858 22.536 64.3018 21.696 63.8858 20.704C63.4858 19.712 63.2858 18.592 63.2858 17.344C63.2858 16.08 63.5018 14.944 63.9338 13.936C64.3658 12.928 64.9818 12.072 65.7818 11.368C66.5818 10.648 67.5338 10.104 68.6378 9.736C69.7418 9.352 70.9578 9.16 72.2858 9.16C73.8378 9.16 75.1818 9.4 76.3178 9.88C77.4538 10.36 78.3578 11.032 79.0298 11.896C79.7018 12.744 80.0858 13.752 80.1818 14.92H77.6618C77.4538 14.232 77.1098 13.64 76.6298 13.144C76.1658 12.648 75.5658 12.264 74.8298 11.992C74.1098 11.704 73.2618 11.56 72.2858 11.56C71.0058 11.56 69.8938 11.808 68.9498 12.304C68.0218 12.784 67.3098 13.464 66.8138 14.344C66.3178 15.208 66.0698 16.208 66.0698 17.344C66.0698 18.48 66.2858 19.464 66.7178 20.296C67.1658 21.112 67.8378 21.752 68.7338 22.216C69.6298 22.664 70.7418 22.888 72.0698 22.888C73.0938 22.888 73.9898 22.736 74.7578 22.432C75.5418 22.112 76.1898 21.672 76.7018 21.112C77.2138 20.552 77.5738 19.904 77.7818 19.168L79.0058 18.88C78.7818 20.944 78.0458 22.528 76.7978 23.632C75.5658 24.736 73.9658 25.288 71.9978 25.288ZM78.3578 25C78.3578 24.488 78.3818 23.912 78.4298 23.272C78.4778 22.616 78.5338 21.952 78.5978 21.28C78.6778 20.592 78.7498 19.976 78.8138 19.432H72.3818V17.464H80.7818V25H78.3578ZM86.1524 18.376V22.648H97.0724V25H83.4164V9.448H97.0484V11.8H86.1524V16.12H95.0804V18.376H86.1524ZM114.041 22.168L113.225 22.48V9.448H115.937V25H113.225L101.561 12.352L102.401 12.04V25H99.6651V9.448H102.401L114.041 22.168ZM118.577 9.448H133.793V11.8L121.073 23.464L120.761 22.648H133.793V25H118.577V22.648L131.321 10.984L131.609 11.8H118.577V9.448ZM136.884 9.448H139.62V25H136.884V9.448Z" fill="white"/>
<path d="M145.899 22.408V25H142.707V22.408H145.899Z" fill="#ED2A00"/>
<path d="M10.0227 0.00627957C15.529 0.00627957 21.0331 0.0166469 26.5394 4.94441e-05C28.4529 -0.00617461 30.0705 0.574748 31.3497 2.00835C32.0308 2.77184 32.8226 3.44404 33.4973 4.21582C34.8574 5.76976 34.8148 7.14734 33.3547 8.61206C31.3518 10.6224 29.3128 12.6017 27.2886 14.5913C25.2049 16.639 25.1964 17.3071 27.2524 19.3423C31.0006 23.0498 34.7573 26.751 38.497 30.4668C38.9716 30.9398 39.4165 31.4626 39.7698 32.0249C40.2253 32.7489 39.9933 33.3942 39.176 33.7054C38.7056 33.8838 38.1671 33.9688 37.6584 33.9709C32.7289 33.9937 27.7973 33.9834 22.8678 34C21.3332 34.0041 20.0306 33.527 18.9643 32.4378C18.1895 31.6452 17.3807 30.8859 16.6038 30.0954C14.9288 28.3942 14.9245 26.8402 16.6251 25.1328C18.6259 23.1203 20.6607 21.139 22.6699 19.1349C24.4599 17.3486 24.4408 16.5685 22.6295 14.7884C18.3832 10.6224 14.1434 6.44817 9.89498 2.28428C9.66724 2.06021 9.40757 1.84446 9.12235 1.70338C8.43487 1.36106 7.86444 1.62454 7.70907 2.37142C7.62393 2.78429 7.62819 3.21997 7.62819 3.64528C7.61542 12.5083 7.61116 21.3734 7.59839 30.2365C7.59839 30.8485 7.60477 31.4709 7.50261 32.0726C7.29827 33.2738 6.6491 33.8485 5.39545 33.9274C4.3589 33.9938 3.31596 33.9792 2.27515 33.9813C-0.655716 33.9834 6.10259 33.9792 3.17172 33.9688C2.76093 33.9688 2.34801 33.9523 1.94148 33.9045C0.887902 33.7759 0.298326 33.2676 0.102509 32.2572C0.00672948 31.7635 0.00459632 31.249 0.00459632 30.7448C-0.00178901 21.5872 0.000341158 12.4295 0.000341158 3.27183C0.000341158 0.504202 0.498399 0.0208145 3.36115 0.0187398C8.8121 0.0145905 4.57387 0.0187398 10.0248 0.0187398V0.010433L10.0227 0.00627957Z" fill="#ED2A00"/>
</svg>
